<?xml version="1.0" encoding="utf-8"?>
<!-- Generator: Adobe Illustrator 26.0.0, SVG Export Plug-In . SVG Version: 6.00 Build 0)  -->
<svg version="1.1" id="Capa_1" xmlns="http://www.w3.org/2000/svg" xmlns:xlink="http://www.w3.org/1999/xlink" x="0px" y="0px"
	 viewBox="0 0 3146.46 3146.46" style="enable-background:new 0 0 3146.46 3146.46;" xml:space="preserve">
<style type="text/css">
	.st0{clip-path:url(#SVGID_00000138553330573272009020000014311610291798691216_);}
	.st1{fill-rule:evenodd;clip-rule:evenodd;fill:url(#SVGID_00000036241380848658446880000015208254847925556128_);}
	.st2{fill:#FFFFFF;}
	.st3{clip-path:url(#SVGID_00000065780791379273254910000012683966181341064100_);}
	.st4{fill-rule:evenodd;clip-rule:evenodd;fill:url(#SVGID_00000002383456110487113600000015021455890977275056_);}
</style>
<g>
	<g>
		<g>
			<path d="M752.26,908.34c-18.18-1.65-32.79-5-43.89-10c-28.22-12.75-43.1-27.2-44.59-43.29c-3.54-44.95-4.29-94.62-2.28-149.05
				c1.93-53.84,6.45-103.51,13.62-149.05c-25.7,2.79-51.4,4.17-77.1,4.17c-22.71,0-45.66-1.1-68.84-3.35
				c9.6,67.89,14.37,131.34,14.37,190.38c0,28.73-0.98,57.66-2.99,86.9c12.08,0,24.17,0,36.29,0h2.99h9.09
				c15.11,0,28.73,2.79,40.81,8.34c13.62,7.79,20.94,18.07,21.96,30.82c2.48,28.3,5.79,54.95,9.8,79.94
				c2.01,13.3-5.04,22.47-21.18,27.47c-13.58,6.65-31.49,10.27-53.69,10.82c-8.07,1.65-17.87,1.93-29.48,0.83
				c-8.07-0.55-16.61-3.03-25.7-7.48c-16.14-4.45-22.95-13.62-20.43-27.47c3.54-17.79,6.81-38.02,9.84-60.81l-54.43,10
				c-6.06,1.14-12.36,1.97-18.89,2.52c-20.7,1.65-31.02-3.62-31.02-15.86c0.98-5.55,1.5-11.14,1.5-16.69
				c9.09-43.92,13.62-88.16,13.62-132.64c0-88.99-18.14-174.36-54.43-256.11c-1.02-4.45-2.52-9.45-4.53-15.03
				c-2.05-5.55,1.26-9.17,9.8-10.82c9.6,0,17.91,1.14,24.95,3.38c67.07,22.16,132.09,32.98,195.1,32.39
				c60.49,0,116.94-8.58,169.36-25.82c22.16-7.2,38.81-10.51,49.91-9.96c8.07,1.65,11.85,5.27,11.34,10.82
				c-1.02,6.1-2.52,11.37-4.53,15.82c-38.85,79.94-58.21,165.7-58.21,257.29c0,43.29,4.53,86.86,13.58,130.71
				C783.99,899.76,773.4,910.04,752.26,908.34z"/>
		</g>
		<g>
			<g>
				<path d="M1365.47,880.43l-0.78,3.13l-7.05,0.79c-4.18,1.04-8.09,1.56-11.73,1.56c-6.79,0-16.7-1.56-29.74-4.69
					c-58.43-14.09-96.25-32.86-113.47-56.34c-26.61-36-49.82-79.56-69.65-130.69h-33.65c2.09,0-4.69,0.28-20.34,0.79h-14.09
					c0,30.26-4.96,73.83-14.86,130.68c-4.19,13.05-15.93,23.75-35.22,32.09c-27.66,12.52-56.34,21.12-86.08,25.82
					c-6.79,1.05-13.83,0.79-21.14-0.78c-9.92-2.08-13.83-6.26-11.74-12.53c2.09-6.8,3.64-11.49,4.7-14.1
					c34.94-59.06,51.9-119.97,50.87-182.69c-0.52-43.9-17.74-104.8-51.65-182.69c-3.65-8.36-5.87-13.33-6.66-14.89
					c-0.78-1.57-1.17-2.88-1.17-3.92c0-3.13,3.39-5.74,10.17-7.84c3.64-0.51,7.04-0.79,10.17-0.79c23.99,0,59.59,4.19,106.82,12.53
					c47.21,8.35,82.82,12.52,106.82,12.52c64.17,0,122.86-6.26,176.07-18.78c11.99-3.13,20.6-5.21,25.82-6.26
					c6.26-1.03,13.31-0.51,21.12,1.57c10.43,2.62,14.35,6.79,11.74,12.53c-2.61,7.31-4.43,12.26-5.48,14.86
					c-31.3,52.18-48.26,105.13-50.87,158.86c-0.52,13.57-6.14,24.14-16.82,31.69c-10.7,7.57-23.08,11.35-37.17,11.35
					c21.38,55.83,55.56,109.56,102.51,161.21c4.17,4.69,6.51,7.82,7.04,9.39C1360.51,866.35,1362.34,871.57,1365.47,880.43z
					 M1200.35,543.94c-25.04,2.62-50.6,3.92-76.68,3.92c-22.97,0-45.91-1.04-68.87-3.13c4.18,32.35,8.09,63.39,11.74,93.12
					l61.04,0.79c26.08,0.52,45.9,0.27,59.48-0.79C1188.62,601.33,1193.05,570.04,1200.35,543.94z"/>
				<path d="M1877.26,871.78c2.08,5.25-1.31,9.17-10.17,11.79c-6.79,2.09-14.36,2.09-22.69,0c-10.45-2.1-18.27-3.41-23.48-3.95
					c-16.7-3.15-35.22-9.2-55.57-18.14c-25.03-11.57-39.39-23.42-43.04-35.52c-10.95-37.35-16.43-80.23-16.43-128.63h-61.04
					c-20.35,0-40.69,0.28-61.04,0.79c-1.57,36.52-6.53,79.04-14.86,127.55c-6.26,18.78-28.18,33.65-65.74,44.6l-32.86,9.4
					c-8.87,1.05-16.44,2.34-22.69,3.91c-8.88,2.09-16.7,2.09-23.48,0c-8.35-2.6-11.48-7.04-9.4-13.31
					c2.09-6.77,3.64-11.46,4.7-14.08c34.43-59.48,51.38-120.24,50.87-182.34c0-43.29-17.22-104.07-51.65-182.33
					c-3.65-8.34-5.87-13.31-6.66-14.87c-0.78-1.57-1.17-2.86-1.17-3.91c0-3.13,3.39-5.73,10.17-7.83c3.13-0.51,6.52-0.78,10.17-0.78
					c3.13,0,15.65,2.09,37.56,6.25c63.12,12.02,122.34,18,177.64,18c55.81,0,114.51-6.52,176.07-19.56c22.43-4.7,34.43-7.05,36-7.05
					c17.73,0,24.77,4.98,21.13,14.93c-2.61,6.28-4.43,11.26-5.48,14.92c-34.95,57.6-52.96,118.61-53.99,183.02
					c-1.05,64.42,16.16,125.41,51.65,183.01L1877.26,871.78z M1719.18,543.94c-25.03,2.62-50.6,3.92-76.68,3.92
					c-23.48,0-46.96-1.04-70.44-3.13c6.26,32.86,10.17,65.22,11.74,97.04c40.69,0.52,81.39,0.52,122.08,0
					C1707.45,605.25,1711.87,572.64,1719.18,543.94z"/>
				<path d="M2392.95,871.71c2.08,5.28-1.31,9.23-10.17,11.86c-6.79,2.09-14.36,2.09-22.69,0c-10.96-2.23-18.78-3.63-23.48-4.2
					c-76.18-12.85-134.87-19.28-176.07-19.28c-41.22,0-99.38,6.53-174.51,19.57c-10.44,1.57-18,2.88-22.69,3.91
					c-7.83,2.09-15.65,2.09-23.48,0c-8.35-3.13-11.48-7.55-9.4-13.31c2.09-6.77,3.64-11.46,4.7-14.08
					c34.43-59.48,51.38-120.24,50.87-182.34c0-43.29-17.22-104.07-51.65-182.33c-3.65-8.34-5.87-13.31-6.66-14.87
					c-0.78-1.57-1.17-2.86-1.17-3.91c0-3.13,3.39-5.73,10.17-7.83c3.13-0.51,6.52-0.78,10.17-0.78c3.13,0,15.65,2.09,37.56,6.25
					c63.12,12.02,122.34,18,177.64,18c55.81,0,114.51-6.52,176.07-19.56c22.43-4.7,34.43-7.05,36-7.05
					c17.73,0,24.77,4.97,21.12,14.87c-2.61,6.26-4.43,11.23-5.48,14.87c-17.74,36.52-30.52,64.16-38.34,82.94
					c-6.79,14.62-15.93,26.35-27.39,35.22c-4.19,4.19-10.45,7.56-18.78,10.17c-3.66,0.52-11.48,2.09-23.48,4.7h-25.82l-7.04-3.17
					l-7.04-2.36c-13.05-4.21-18.27-13.17-15.66-26.87l8.61-48.21c-25.04,2.62-50.6,3.92-76.68,3.92c-23.48,0-46.96-1.04-70.44-3.13
					c8.87,43.7,13.3,87.39,13.3,131.08c0,43.18-4.43,86.61-13.3,130.3c25.04-2.08,50.09-3.13,75.12-3.13
					c22.43,0,45.65,1.05,69.65,3.13c-2.09-9.4-4.44-25.05-7.04-46.96c-1.57-11.46,4.17-20.6,17.22-27.39
					c6.26-4.69,19.29-7.04,39.13-7.04c19.29,2.64,32.86,7.38,40.69,14.22c15.13,13.18,24.26,25.56,27.39,37.15
					c6.78,26.35,19.29,53.48,37.56,81.41L2392.95,871.71z"/>
				<path d="M2896.14,502.46c-37.56,32.35-81.91,74.09-133.03,125.21c37.56,85.58,78.77,153.38,123.64,203.46
					c8.34,9.4,14.59,19.06,18.78,28.96c1.57,4.19,0,9.66-4.7,16.44c-11.47,1.57-19.05,2.62-22.69,3.13
					c-6.79,1.05-12.52,0.78-17.22-0.79c-49.05-10.43-80.09-22.42-93.12-36c-33.4-34.94-63.4-76.16-90-123.64
					c-30.79,29.22-54,51.13-69.65,65.73c-4.18,23.48-6.79,37.05-7.82,40.69c-3.13,12.53-14.61,23.22-34.44,32.09
					c-27.12,12.01-56.08,20.61-86.85,25.82c-6.79,1.05-13.83,0.79-21.14-0.78c-9.92-2.08-13.83-6.26-11.74-12.53
					c2.09-6.77,3.64-11.46,4.7-14.08c34.94-58.94,51.9-119.73,50.87-182.34c-0.52-43.82-17.74-104.59-51.65-182.33
					c-3.65-8.34-5.87-13.31-6.66-14.87c-0.78-1.57-1.17-2.86-1.17-3.91c0-3.13,3.39-5.73,10.17-7.83c3.64-0.51,7.04-0.78,10.17-0.78
					c1.57,0,14.6,2.09,39.13,6.25c38.07,10.96,70.94,29.49,98.6,55.57c10.95,47.48,16.43,101.47,16.43,161.99
					c69.38-75.64,144.51-144,225.38-205.03c18.26-13.56,39.39-22.42,63.39-26.61c3.13-0.51,8.61,0.53,16.44,3.13
					c1.03,5.22-0.28,11.48-3.92,18.78L2896.14,502.46z"/>
			</g>
		</g>
	</g>
	<g>
		<g>
			<defs>
				<path id="SVGID_1_" d="M2486.06,2653.27c-6.56-25.22-15.8-39.27-27.7-42.14c-7.49-1.81-16.71-1.2-27.67,1.83
					c-53.02,13.66-105.66,14.18-157.86,1.57c-85.01-20.54-157.6-50.84-217.77-90.89c-18.03-12-32.62-23.6-44.55-34.9h307.7V1032.31
					H861.8v1163.7c-0.41,5.49-0.4,10.79,0,15.9v276.82h408.62c144.97,131.93,260.55,228.15,345.94,287.68
					c101.66,70.88,200.58,117.94,296.78,141.18c82.03,19.81,165.3,23.86,249.82,12.13c84.52-11.72,157.27-37.64,218.28-77.72
					c60-39.39,95.54-81.86,106.54-127.41C2493.17,2702.25,2492.57,2678.47,2486.06,2653.27z M2133.28,1217.25v1086.53h-374.51
					c-72.83-36.03-145.46-72.71-218.8-108.18c-23.51-11.49-47.25-22.38-71.01-33.25c-3.65-1.24-7.89-2.69-13.32-4.58
					c-32.08-6.32-64.23-16.72-95.87-25.02c-71.27-18.71-142.47-41.91-210.54-72.03c-4.89,2.51-10.75,3.24-17.99,1.5l-60.08-15.93
					c-8.23-1.99-16.35-3.18-24.42-4v-825.03H2133.28z"/>
			</defs>
			<clipPath id="SVGID_00000156578699287679075790000011997123491259752367_">
				<use xlink:href="#SVGID_1_"  style="overflow:visible;"/>
			</clipPath>
			<g style="clip-path:url(#SVGID_00000156578699287679075790000011997123491259752367_);">
				<g>
					
						<linearGradient id="SVGID_00000060713132768893454030000016556308917661820300_" gradientUnits="userSpaceOnUse" x1="6886.0312" y1="3621.8862" x2="2836.0454" y2="-47.1341">
						<stop  offset="0" style="stop-color:#FEC053"/>
						<stop  offset="0.3273" style="stop-color:#F2203E"/>
						<stop  offset="0.6485" style="stop-color:#B729A8"/>
						<stop  offset="1" style="stop-color:#5342D6"/>
					</linearGradient>
					<path style="fill-rule:evenodd;clip-rule:evenodd;fill:url(#SVGID_00000060713132768893454030000016556308917661820300_);" d="
						M1983.91,715.61h5839.42c803.15,0,1461.08,166.73,1461.08,370.31v1480.02c0,203.57-657.93,370.31-1461.08,370.31H1983.91
						c-803.28,0-1461.13-166.74-1461.13-370.31V1085.93C522.78,882.34,1180.63,715.61,1983.91,715.61L1983.91,715.61z"/>
				</g>
			</g>
		</g>
		<rect x="1019.13" y="1189.63" class="st2" width="1141.77" height="1141.77"/>
		<g>
			<defs>
				
					<rect id="SVGID_00000031180216633803217630000016367056654856739972_" x="1270.22" y="1440.72" width="639.59" height="639.59"/>
			</defs>
			<clipPath id="SVGID_00000025412214050092394740000009804055363817651859_">
				<use xlink:href="#SVGID_00000031180216633803217630000016367056654856739972_"  style="overflow:visible;"/>
			</clipPath>
			<g style="clip-path:url(#SVGID_00000025412214050092394740000009804055363817651859_);">
				<g>
					
						<linearGradient id="SVGID_00000043451003943195232030000014694151119167326122_" gradientUnits="userSpaceOnUse" x1="1989.9242" y1="1997.6614" x2="1338.4536" y2="1407.4719">
						<stop  offset="0" style="stop-color:#FEC053"/>
						<stop  offset="0.3273" style="stop-color:#F2203E"/>
						<stop  offset="0.6485" style="stop-color:#B729A8"/>
						<stop  offset="1" style="stop-color:#5342D6"/>
					</linearGradient>
					<path style="fill-rule:evenodd;clip-rule:evenodd;fill:url(#SVGID_00000043451003943195232030000014694151119167326122_);" d="
						M1362.97,1217.25h616.15c84.75,0,154.17,73.81,154.17,163.93v655.18c0,90.12-69.42,163.93-154.17,163.93h-616.15
						c-84.76,0-154.17-73.81-154.17-163.93v-655.18C1208.79,1291.06,1278.21,1217.25,1362.97,1217.25L1362.97,1217.25z"/>
				</g>
			</g>
		</g>
	</g>
</g>
</svg>
