<?xml version="1.0" encoding="utf-8"?>
<!-- Generator: Adobe Illustrator 26.0.0, SVG Export Plug-In . SVG Version: 6.00 Build 0)  -->
<svg version="1.1" id="Capa_1" xmlns="http://www.w3.org/2000/svg" xmlns:xlink="http://www.w3.org/1999/xlink" x="0px" y="0px"
	 viewBox="0 0 3146.5 3146.5" style="enable-background:new 0 0 3146.5 3146.5;" xml:space="preserve">
<style type="text/css">
	.st0{fill:#FFFFFF;}
	.st1{clip-path:url(#SVGID_00000027600228570535005750000018209876427521278119_);}
	.st2{fill-rule:evenodd;clip-rule:evenodd;fill:url(#SVGID_00000067938179763685689690000007634637262271595658_);}
	.st3{clip-path:url(#SVGID_00000179632564213574396580000012360354577182510996_);}
	.st4{fill-rule:evenodd;clip-rule:evenodd;fill:url(#SVGID_00000129912831260198060800000001889960947324776335_);}
</style>
<g>
	<g>
		<g>
			<path class="st0" d="M752.3,908.3c-18.2-1.7-32.8-5-43.9-10c-28.2-12.8-43.1-27.2-44.6-43.3c-3.5-45-4.3-94.6-2.3-149
				c1.9-53.8,6.5-103.5,13.6-149c-25.7,2.8-51.4,4.2-77.1,4.2c-22.7,0-45.7-1.1-68.8-3.3c9.6,67.9,14.4,131.3,14.4,190.4
				c0,28.7-1,57.7-3,86.9c12.1,0,24.2,0,36.3,0h3h9.1c15.1,0,28.7,2.8,40.8,8.3c13.6,7.8,20.9,18.1,22,30.8
				c2.5,28.3,5.8,55,9.8,79.9c2,13.3-5,22.5-21.2,27.5c-13.6,6.7-31.5,10.3-53.7,10.8c-8.1,1.7-17.9,1.9-29.5,0.8
				c-8.1-0.5-16.6-3-25.7-7.5c-16.1-4.5-23-13.6-20.4-27.5c3.5-17.8,6.8-38,9.8-60.8l-54.4,10c-6.1,1.1-12.4,2-18.9,2.5
				c-20.7,1.7-31-3.6-31-15.9c1-5.5,1.5-11.1,1.5-16.7c9.1-43.9,13.6-88.2,13.6-132.6c0-89-18.1-174.4-54.4-256.1
				c-1-4.5-2.5-9.5-4.5-15c-2-5.5,1.3-9.2,9.8-10.8c9.6,0,17.9,1.1,25,3.4c67.1,22.2,132.1,33,195.1,32.4
				c60.5,0,116.9-8.6,169.4-25.8c22.2-7.2,38.8-10.5,49.9-10c8.1,1.6,11.8,5.3,11.3,10.8c-1,6.1-2.5,11.4-4.5,15.8
				c-38.8,79.9-58.2,165.7-58.2,257.3c0,43.3,4.5,86.9,13.6,130.7C784,899.8,773.4,910,752.3,908.3z"/>
		</g>
		<g>
			<g>
				<path class="st0" d="M1365.5,880.4l-0.8,3.1l-7.1,0.8c-4.2,1-8.1,1.6-11.7,1.6c-6.8,0-16.7-1.6-29.7-4.7
					c-58.4-14.1-96.2-32.9-113.5-56.3c-26.6-36-49.8-79.6-69.7-130.7h-33.7c2.1,0-4.7,0.3-20.3,0.8H1065c0,30.3-5,73.8-14.9,130.7
					c-4.2,13-15.9,23.8-35.2,32.1c-27.7,12.5-56.3,21.1-86.1,25.8c-6.8,1-13.8,0.8-21.1-0.8c-9.9-2.1-13.8-6.3-11.7-12.5
					c2.1-6.8,3.6-11.5,4.7-14.1c34.9-59.1,51.9-120,50.9-182.7c-0.5-43.9-17.7-104.8-51.7-182.7c-3.7-8.4-5.9-13.3-6.7-14.9
					c-0.8-1.6-1.2-2.9-1.2-3.9c0-3.1,3.4-5.7,10.2-7.8c3.6-0.5,7-0.8,10.2-0.8c24,0,59.6,4.2,106.8,12.5
					c47.2,8.4,82.8,12.5,106.8,12.5c64.2,0,122.9-6.3,176.1-18.8c12-3.1,20.6-5.2,25.8-6.3c6.3-1,13.3-0.5,21.1,1.6
					c10.4,2.6,14.3,6.8,11.7,12.5c-2.6,7.3-4.4,12.3-5.5,14.9c-31.3,52.2-48.3,105.1-50.9,158.9c-0.5,13.6-6.1,24.1-16.8,31.7
					c-10.7,7.6-23.1,11.3-37.2,11.3c21.4,55.8,55.6,109.6,102.5,161.2c4.2,4.7,6.5,7.8,7,9.4
					C1360.5,866.3,1362.3,871.6,1365.5,880.4z M1200.3,543.9c-25,2.6-50.6,3.9-76.7,3.9c-23,0-45.9-1-68.9-3.1
					c4.2,32.3,8.1,63.4,11.7,93.1l61,0.8c26.1,0.5,45.9,0.3,59.5-0.8C1188.6,601.3,1193.1,570,1200.3,543.9z"/>
				<path class="st0" d="M1877.3,871.8c2.1,5.2-1.3,9.2-10.2,11.8c-6.8,2.1-14.4,2.1-22.7,0c-10.4-2.1-18.3-3.4-23.5-4
					c-16.7-3.2-35.2-9.2-55.6-18.1c-25-11.6-39.4-23.4-43-35.5c-10.9-37.3-16.4-80.2-16.4-128.6h-61c-20.3,0-40.7,0.3-61,0.8
					c-1.6,36.5-6.5,79-14.9,127.5c-6.3,18.8-28.2,33.7-65.7,44.6l-32.9,9.4c-8.9,1-16.4,2.3-22.7,3.9c-8.9,2.1-16.7,2.1-23.5,0
					c-8.3-2.6-11.5-7-9.4-13.3c2.1-6.8,3.6-11.5,4.7-14.1c34.4-59.5,51.4-120.2,50.9-182.3c0-43.3-17.2-104.1-51.7-182.3
					c-3.7-8.3-5.9-13.3-6.7-14.9c-0.8-1.6-1.2-2.9-1.2-3.9c0-3.1,3.4-5.7,10.2-7.8c3.1-0.5,6.5-0.8,10.2-0.8
					c3.1,0,15.7,2.1,37.6,6.2c63.1,12,122.3,18,177.6,18c55.8,0,114.5-6.5,176.1-19.6c22.4-4.7,34.4-7,36-7c17.7,0,24.8,5,21.1,14.9
					c-2.6,6.3-4.4,11.3-5.5,14.9c-34.9,57.6-53,118.6-54,183c-1.1,64.4,16.2,125.4,51.7,183L1877.3,871.8z M1719.2,543.9
					c-25,2.6-50.6,3.9-76.7,3.9c-23.5,0-47-1-70.4-3.1c6.3,32.9,10.2,65.2,11.7,97c40.7,0.5,81.4,0.5,122.1,0
					C1707.4,605.2,1711.9,572.6,1719.2,543.9z"/>
				<path class="st0" d="M2392.9,871.7c2.1,5.3-1.3,9.2-10.2,11.9c-6.8,2.1-14.4,2.1-22.7,0c-11-2.2-18.8-3.6-23.5-4.2
					c-76.2-12.8-134.9-19.3-176.1-19.3c-41.2,0-99.4,6.5-174.5,19.6c-10.4,1.6-18,2.9-22.7,3.9c-7.8,2.1-15.7,2.1-23.5,0
					c-8.3-3.1-11.5-7.5-9.4-13.3c2.1-6.8,3.6-11.5,4.7-14.1c34.4-59.5,51.4-120.2,50.9-182.3c0-43.3-17.2-104.1-51.7-182.3
					c-3.7-8.3-5.9-13.3-6.7-14.9c-0.8-1.6-1.2-2.9-1.2-3.9c0-3.1,3.4-5.7,10.2-7.8c3.1-0.5,6.5-0.8,10.2-0.8
					c3.1,0,15.7,2.1,37.6,6.2c63.1,12,122.3,18,177.6,18c55.8,0,114.5-6.5,176.1-19.6c22.4-4.7,34.4-7,36-7c17.7,0,24.8,5,21.1,14.9
					c-2.6,6.3-4.4,11.2-5.5,14.9c-17.7,36.5-30.5,64.2-38.3,82.9c-6.8,14.6-15.9,26.3-27.4,35.2c-4.2,4.2-10.4,7.6-18.8,10.2
					c-3.7,0.5-11.5,2.1-23.5,4.7H2256l-7-3.2l-7-2.4c-13.1-4.2-18.3-13.2-15.7-26.9l8.6-48.2c-25,2.6-50.6,3.9-76.7,3.9
					c-23.5,0-47-1-70.4-3.1c8.9,43.7,13.3,87.4,13.3,131.1c0,43.2-4.4,86.6-13.3,130.3c25-2.1,50.1-3.1,75.1-3.1
					c22.4,0,45.6,1,69.6,3.1c-2.1-9.4-4.4-25-7-47c-1.6-11.5,4.2-20.6,17.2-27.4c6.3-4.7,19.3-7,39.1-7c19.3,2.6,32.9,7.4,40.7,14.2
					c15.1,13.2,24.3,25.6,27.4,37.2c6.8,26.3,19.3,53.5,37.6,81.4L2392.9,871.7z"/>
				<path class="st0" d="M2896.1,502.5c-37.6,32.4-81.9,74.1-133,125.2c37.6,85.6,78.8,153.4,123.6,203.5c8.3,9.4,14.6,19.1,18.8,29
					c1.6,4.2,0,9.7-4.7,16.4c-11.5,1.6-19.1,2.6-22.7,3.1c-6.8,1-12.5,0.8-17.2-0.8c-49.1-10.4-80.1-22.4-93.1-36
					c-33.4-34.9-63.4-76.2-90-123.6c-30.8,29.2-54,51.1-69.6,65.7c-4.2,23.5-6.8,37-7.8,40.7c-3.1,12.5-14.6,23.2-34.4,32.1
					c-27.1,12-56.1,20.6-86.9,25.8c-6.8,1-13.8,0.8-21.1-0.8c-9.9-2.1-13.8-6.3-11.7-12.5c2.1-6.8,3.6-11.5,4.7-14.1
					c34.9-58.9,51.9-119.7,50.9-182.3c-0.5-43.8-17.7-104.6-51.6-182.3c-3.6-8.3-5.9-13.3-6.7-14.9c-0.8-1.6-1.2-2.9-1.2-3.9
					c0-3.1,3.4-5.7,10.2-7.8c3.6-0.5,7-0.8,10.2-0.8c1.6,0,14.6,2.1,39.1,6.2c38.1,11,70.9,29.5,98.6,55.6
					c10.9,47.5,16.4,101.5,16.4,162c69.4-75.6,144.5-144,225.4-205c18.3-13.6,39.4-22.4,63.4-26.6c3.1-0.5,8.6,0.5,16.4,3.1
					c1,5.2-0.3,11.5-3.9,18.8L2896.1,502.5z"/>
			</g>
		</g>
	</g>
	<g>
		<g>
			<g>
				<defs>
					<path id="SVGID_1_" d="M2486.1,2653.3c-6.6-25.2-15.8-39.3-27.7-42.1c-7.5-1.8-16.7-1.2-27.7,1.8
						c-53,13.7-105.7,14.2-157.9,1.6c-85-20.5-157.6-50.8-217.8-90.9c-18-12-32.6-23.6-44.6-34.9h307.7V1032.3H861.8V2196
						c-0.4,5.5-0.4,10.8,0,15.9v276.8h408.6c145,131.9,260.6,228.1,345.9,287.7c101.7,70.9,200.6,117.9,296.8,141.2
						c82,19.8,165.3,23.9,249.8,12.1c84.5-11.7,157.3-37.6,218.3-77.7c60-39.4,95.5-81.9,106.5-127.4
						C2493.2,2702.2,2492.6,2678.5,2486.1,2653.3z M2133.3,1217.2v1086.5h-374.5c-72.8-36-145.5-72.7-218.8-108.2
						c-23.5-11.5-47.2-22.4-71-33.2c-3.7-1.2-7.9-2.7-13.3-4.6c-32.1-6.3-64.2-16.7-95.9-25c-71.3-18.7-142.5-41.9-210.5-72
						c-4.9,2.5-10.8,3.2-18,1.5l-60.1-15.9c-8.2-2-16.3-3.2-24.4-4v-825L2133.3,1217.2L2133.3,1217.2z"/>
				</defs>
				<clipPath id="SVGID_00000084498993179735229580000009944041484460967831_">
					<use xlink:href="#SVGID_1_"  style="overflow:visible;"/>
				</clipPath>
				<g style="clip-path:url(#SVGID_00000084498993179735229580000009944041484460967831_);">
					<g>
						
							<linearGradient id="SVGID_00000083062431297533213940000007582125692937756339_" gradientUnits="userSpaceOnUse" x1="6886.0308" y1="-475.8866" x2="2836.0447" y2="3193.1333" gradientTransform="matrix(1 0 0 -1 0 3146)">
							<stop  offset="0" style="stop-color:#FEC053"/>
							<stop  offset="0.3273" style="stop-color:#F2203E"/>
							<stop  offset="0.6485" style="stop-color:#B729A8"/>
							<stop  offset="1" style="stop-color:#5342D6"/>
						</linearGradient>
						
							<path style="fill-rule:evenodd;clip-rule:evenodd;fill:url(#SVGID_00000083062431297533213940000007582125692937756339_);" d="
							M1983.9,715.6h5839.4c803.2,0,1461.1,166.7,1461.1,370.3v1480c0,203.6-657.9,370.3-1461.1,370.3H1983.9
							c-803.3,0-1461.1-166.7-1461.1-370.3v-1480C522.8,882.3,1180.6,715.6,1983.9,715.6L1983.9,715.6z"/>
					</g>
				</g>
			</g>
		</g>
		<rect x="1019.1" y="1189.6" class="st0" width="1141.8" height="1141.8"/>
		<g>
			<g>
				<defs>
					<rect id="SVGID_00000084495259903523052090000000752881167625350302_" x="1270.2" y="1440.7" width="639.6" height="639.6"/>
				</defs>
				<clipPath id="SVGID_00000118391944733472302180000016550659797008891014_">
					<use xlink:href="#SVGID_00000084495259903523052090000000752881167625350302_"  style="overflow:visible;"/>
				</clipPath>
				<g style="clip-path:url(#SVGID_00000118391944733472302180000016550659797008891014_);">
					<g>
						
							<linearGradient id="SVGID_00000178883113926633135550000015362439411463811228_" gradientUnits="userSpaceOnUse" x1="1989.9272" y1="1148.342" x2="1338.4567" y2="1738.5314" gradientTransform="matrix(1 0 0 -1 0 3146)">
							<stop  offset="0" style="stop-color:#FEC053"/>
							<stop  offset="0.3273" style="stop-color:#F2203E"/>
							<stop  offset="0.6485" style="stop-color:#B729A8"/>
							<stop  offset="1" style="stop-color:#5342D6"/>
						</linearGradient>
						
							<path style="fill-rule:evenodd;clip-rule:evenodd;fill:url(#SVGID_00000178883113926633135550000015362439411463811228_);" d="
							M1363,1217.2h616.2c84.8,0,154.2,73.8,154.2,163.9v655.2c0,90.1-69.4,163.9-154.2,163.9H1363c-84.8,0-154.2-73.8-154.2-163.9
							v-655.2C1208.8,1291.1,1278.2,1217.2,1363,1217.2L1363,1217.2z"/>
					</g>
				</g>
			</g>
		</g>
	</g>
</g>
</svg>
